<svg width="59" height="20" viewBox="0 0 59 20" fill="none" xmlns="http://www.w3.org/2000/svg">
<path d="M0 19.9148C1.63656 18.2571 3.12889 16.7648 4.59429 15.2436C4.97891 14.8436 5.41738 14.8225 5.90584 14.8225C10.7777 14.8225 15.4572 14.8225 20.3291 14.8225C21.2503 14.8225 22.0022 14.2397 22.0022 13.2782C22.0022 12.5089 21.2503 11.8436 20.3291 11.8436C16.4829 11.8436 12.704 11.8436 8.8578 11.8436C7.77327 11.8504 6.70314 11.5951 5.73853 11.0993C4.03467 10.2224 3.20196 8.59931 3.62312 6.72428C3.8227 5.82522 4.13477 4.95489 4.55198 4.13386C5.6693 1.98383 7.64625 0.964591 9.87897 0.429969C10.9952 0.171107 12.137 0.0382236 13.2829 0.0338097C18.7925 -0.00465229 24.3041 0.0165018 29.8215 0.0145786H30.9177C30.6523 0.322275 30.5042 0.516508 30.3311 0.689587C29.0657 1.95883 27.7753 3.20693 26.533 4.49925C26.3415 4.70942 26.1057 4.87449 25.8426 4.98256C25.5796 5.09064 25.2958 5.13903 25.0118 5.12426C20.6874 5.10375 16.3617 5.10375 12.0348 5.12426C11.559 5.13642 11.0864 5.2055 10.6271 5.33003C9.85781 5.52234 9.63666 6.17812 9.4732 6.83582C9.37127 7.2666 9.85781 7.8166 10.379 7.88583C11.0125 7.97504 11.6509 8.02514 12.2905 8.03584C16.1367 8.06661 19.9829 8.0743 23.8291 8.0993C25.0479 8.1014 26.2398 8.4575 27.26 9.12431C28.6061 10.0012 28.9177 11.3993 28.6388 12.8513C27.8503 16.9436 25.2945 19.1975 21.2483 19.7187C20.0766 19.8568 18.8973 19.9211 17.7175 19.911C12.1098 19.9283 6.50393 19.911 0.896165 19.911L0 19.9148Z" fill="black"/>
<path d="M30.1675 11.8348C29.9329 9.64053 29.2464 7.79628 27.4367 6.4501C27.7521 6.12702 28.0137 5.85971 28.2714 5.59625C29.9695 3.89623 31.6733 2.20005 33.3618 0.492337C33.4959 0.336836 33.6622 0.212288 33.8491 0.127291C34.036 0.0422941 34.2392 -0.001128 34.4445 2.22701e-05C42.2305 0.014125 50.0171 0.0192536 57.8044 0.0154074C57.9292 0.0267138 58.0532 0.045984 58.1756 0.0731003C57.9833 0.300026 57.8275 0.490413 57.6583 0.661569C56.414 1.90966 55.1467 3.13468 53.9332 4.41162C53.7275 4.6485 53.4708 4.83561 53.1823 4.95887C52.8938 5.08212 52.5812 5.1383 52.2678 5.12316C46.212 5.09432 40.1523 5.10778 34.0984 5.10778C33.8426 5.10778 33.5849 5.08663 33.3291 5.10778C32.2579 5.21547 31.5329 6.47126 32.0464 7.4155C32.1926 7.68089 32.558 7.86935 32.8637 7.99243C33.1176 8.08859 33.4407 8.03666 33.7195 8.03666C38.6869 8.03666 43.6542 8.02512 48.6197 8.05589C49.9279 8.03744 51.2354 8.12555 52.5294 8.31936C54.1467 8.59821 55.4948 9.36937 55.8794 11.154C56.0059 11.6502 56.0327 12.1666 55.9582 12.6733C55.2525 16.2598 53.4582 18.606 49.6505 19.508C48.4705 19.7752 47.2641 19.9088 46.0543 19.906C39.9984 19.9445 33.9387 19.9234 27.8867 19.9234C27.6117 19.9234 26.1829 19.8984 25.7925 19.881C28.2714 18.7502 29.1194 16.781 29.656 14.881C35.8657 14.881 41.8753 14.8291 47.962 14.8291C49.1601 14.8291 49.9312 14.4446 49.9312 13.3617C49.9312 12.2117 48.8466 11.8617 47.7428 11.8617C42.2965 11.8489 36.8477 11.8489 31.3964 11.8617L30.1675 11.8348Z" fill="#FF6915"/>
</svg>
